<svg xmlns="http://www.w3.org/2000/svg" viewBox="0 0 64 64" role="img" aria-label="JS monogram">
  <defs>
    <linearGradient id="g" x1="0%" y1="0%" x2="100%" y2="100%">
      <stop offset="0%" stop-color="#e63946"/>
      <stop offset="100%" stop-color="#f48b95"/>
    </linearGradient>
  </defs>
  <rect x="2" y="2" width="60" height="60" rx="14" fill="url(#g)"/>
  <path fill="#ffffff" d="M20 18h8v16.5c0 5.2-3.7 8.6-9.8 8.6-1.7 0-3.5-.3-5-.8l1.4-5.7c1 .4 2 .6 3 .6 1.8 0 2.8-.9 2.8-2.8V18Zm24.4 0c6.4 0 11 3.8 11 10.2 0 7-5.5 11-12.2 11-4.3 0-7.7-1.2-10.1-3.8l3.6-4.3c1.7 1.6 3.7 2.5 6.1 2.5 2.7 0 4.6-1.2 4.6-3.6 0-2.2-1.7-3.6-4.6-3.6-1.8 0-3.7.5-5.2 1.7l-3.4-2.2L36.3 18h8.1Z"/>
</svg>
